:SAMPLES-PER-SECOND 30
:FULLY-SPECIFIED
:DEGREES
9
root  34.99831853 36.5218966 -14.76388616 9.627001762 -0.6853292584 2.883192301
lowerback  -8.081384659 0.3982399702 1.320850015
upperback  -3.790940046 0.1181119978 -2.607274532
thorax  0.6166269779 -0.1274430007 -3.43998003
lowerneck  -15.39379978 2.561969995 1.921329975
upperneck  16.76350021 2.01609993 3.875859976
head  7.695849895 1.353850007 1.170969963
lclavicle  0 -4.497500157e-015 -2.743230041e-014
lhumerus  -44.20769882 25.22570038 71.17949677
lradius  -0.4568948746 -6.507048965e-006 28.87939835
lwrist  4.824992743e-007 -3.790274832e-007 -28.01030159
lhand  -3.515483961e-031 -36.88759995 -10.68879986
lfingers  90 7.125020027 -90
lthumb  94.8109436 -25.52478981 101.0569916
rclavicle  0 -4.497500157e-015 -2.743230041e-014
rhumerus  -44.90430069 -27.35290146 -67.62030029
rradius  -5.16745672e-007 2.214343908e-008 38.86959839
rwrist  1.129822067e-006 0.001802438172 -144.3890076
rhand  -2.998106045e-031 -2.410820007 -7.9728899
rfingers  -90 -7.125020027 -90
rthumb  -86.65420532 -7.725004673 -66.49474335
rfemur  -12.75562191 15.60675907 13.44296074
rtibia  -0.7492977381 0.4555535614 20.6836834
rfoot  -0.3722042441 -19.60366058 -39.17957306
rtoes  4.101288795 19.59664345 -102.0702057
lfemur  -10.06930923 -16.74999237 -18.58658791
ltibia  1.696483493 0.8570415974 15.81520271
lfoot  0.5714387894 -27.59939194 34.5600853
ltoes  -8.770944595 -18.04536057 -116.476799
10
root  35.00165864 36.5236027 -14.76165141 9.656867027 -0.6764149666 2.866749763
lowerback  -8.081120491 0.4071479738 1.290040612
upperback  -3.780230045 0.1334879994 -2.611409903
thorax  0.6323459744 -0.1185080037 -3.413559914
lowerneck  -15.34109974 2.567679882 1.872099996
upperneck  16.61490059 2.046210051 3.893419981
head  7.636060238 1.367059946 1.185520053
lclavicle  0 -4.497500157e-015 -2.743230041e-014
lhumerus  -44.18740082 25.25979996 71.19609833
lradius  -0.4568948746 -6.507048965e-006 28.85609818
lwrist  4.824992743e-007 -3.790274832e-007 -28.08760071
lhand  -3.515513696e-031 -36.87730026 -10.6899004
lfingers  90 7.125020027 -90
lthumb  94.80857849 -25.52620697 101.0461121
rclavicle  0 -4.497500157e-015 -2.743230041e-014
rhumerus  -44.69990158 -26.5965023 -68.04779816
rradius  -5.16745672e-007 2.214343908e-008 39.44290161
rwrist  1.129822067e-006 0.001802438172 -145.1750031
rhand  -3.001985446e-031 -2.338920116 -7.915380001
rfingers  -90 -7.125020027 -90
rthumb  -86.61810303 -7.781740665 -66.4216156
rfemur  -12.75257778 15.52996826 13.43891048
rtibia  -0.7358928919 0.42050758 20.61390686
rfoot  -0.3530985117 -19.64410591 -39.16225433
rtoes  4.121983051 19.59800148 -102.1319275
lfemur  -10.17516708 -16.73180008 -18.52888107
ltibia  1.64329195 0.8758430481 15.92835045
lfoot  0.600343883 -27.69155502 34.56396484
ltoes  -8.793283463 -18.03476524 -116.5489273
11
root  35.00372519 36.52536888 -14.75783521 9.683944702 -0.6533711553 2.869361639
lowerback  -8.076669693 0.4212700427 1.321400166
upperback  -3.772289991 0.1512330025 -2.625119925
thorax  0.6393960118 -0.1095310003 -3.444070101
lowerneck  -15.28730011 2.569050074 1.85255003
upperneck  16.4538002 2.061259985 3.919970036
head  7.572700024 1.375440001 1.196290016
lclavicle  0 -4.497500157e-015 -2.743230041e-014
lhumerus  -44.14820099 25.29059982 71.17289734
lradius  -0.4568948746 -6.507048965e-006 28.82209969
lwrist  4.824992743e-007 -3.790274832e-007 -28.1651001
lhand  -3.511569336e-031 -36.87680054 -10.73750019
lfingers  90 7.125020027 -90
lthumb  94.81847382 -25.57306671 101.0499268
rclavicle  0 -4.497500157e-015 -2.743230041e-014
rhumerus  -44.59759903 -26.10309982 -68.375
rradius  -5.16745672e-007 2.214343908e-008 39.94660187
rwrist  1.129822067e-006 0.001802438172 -146.0709991
rhand  -3.000466838e-031 -2.318650007 -7.938169956
rfingers  -90 -7.125020027 -90
rthumb  -86.62369537 -7.761900902 -66.40319061
rfemur  -12.7745285 15.53480434 13.4298439
rtibia  -0.7368104458 0.4336602688 20.61154747
rfoot  -0.3425624669 -19.599823 -39.15718842
rtoes  4.11669445 19.59938049 -102.1161575
lfemur  -10.25086021 -16.75007629 -18.51086235
ltibia  1.611008406 0.854434669 15.99188805
lfoot  0.566421926 -27.67328835 34.47120285
ltoes  -8.772973061 -18.04440117 -116.483345
12
root  35.00508887 36.5259546 -14.75540371 9.714205742 -0.6398203969 2.858922482
lowerback  -8.06359005 0.4229729772 1.313019753
upperback  -3.770006657 0.1543689966 -2.634589911
thorax  0.6343770027 -0.1079429984 -3.44885993
lowerneck  -15.21370029 2.583509922 1.892379999
upperneck  16.29100037 2.093189955 3.884239912
head  7.506740093 1.389500022 1.17840004
lclavicle  0 -4.497500157e-015 -2.743230041e-014
lhumerus  -44.13299942 25.3567009 71.11370087
lradius  -0.4568948746 -6.507048965e-006 28.7730999
lwrist  4.824992743e-007 -3.790274832e-007 -28.22130013
lhand  -3.514326284e-031 -36.92810059 -10.69699955
lfingers  90 7.125020027 -90
lthumb  94.83393097 -25.53141212 101.1011124
rclavicle  0 -4.497500157e-015 -2.743230041e-014
rhumerus  -44.4734993 -25.53829956 -68.72290039
rradius  -5.16745672e-007 2.214343908e-008 40.43069839
rwrist  1.129822067e-006 0.001802438172 -146.7899933
rhand  -3.004440254e-031 -2.416990042 -7.878280163
rfingers  -90 -7.125020027 -90
rthumb  -86.61721039 -7.811462402 -66.49557495
rfemur  -12.80870533 15.53634834 13.43872166
rtibia  -0.7359811664 0.4659715891 20.61610603
rfoot  -0.3330194354 -19.53452873 -39.14893341
rtoes  4.115381241 19.60074043 -102.112236
lfemur  -10.30154991 -16.74411583 -18.48335648
ltibia  1.591459751 0.8511559367 16.02426147
lfoot  0.5501344204 -27.66964722 34.42128754
ltoes  -8.711322784 -18.07347488 -116.2844696
13
root  35.00713739 36.52294189 -14.75211617 9.730891228 -0.6208038926 2.847679615
lowerback  -8.065400124 0.4253990352 1.292229652
upperback  -3.770184994 0.1596730053 -2.633810043
thorax  0.6412690282 -0.104693003 -3.435839891
lowerneck  -15.21290016 2.600689888 1.894009948
upperneck  16.19479942 2.128489971 3.867640018
head  7.474629879 1.405869961 1.175430059
lclavicle  0 -4.497500157e-015 -2.743230041e-014
lhumerus  -44.12850189 25.38129997 71.11009979
lradius  -0.4568948746 -6.507048965e-006 28.76740265
lwrist  4.824992743e-007 -3.790274832e-007 -28.29700089
lhand  -3.514479114e-031 -36.97710037 -10.6882
lfingers  90 7.125020027 -90
lthumb  94.85499573 -25.52104759 101.1526337
rclavicle  0 -4.497500157e-015 -2.743230041e-014
rhumerus  -44.34379959 -25.06470108 -68.99469757
rradius  -5.16745672e-007 2.214343908e-008 40.99689865
rwrist  1.129822067e-006 0.001802438172 -147.5149994
rhand  -3.007472933e-031 -2.46784997 -7.832709789
rfingers  -90 -7.125020027 -90
rthumb  -86.60807037 -7.85048151 -66.54259491
rfemur  -12.82139969 15.53561115 13.44260216
rtibia  -0.7262783647 0.4825806022 20.61361885
rfoot  -0.3273904026 -19.51032829 -39.14152527
rtoes  4.089607716 19.60203552 -102.0353775
lfemur  -10.28985596 -16.74868393 -18.47861099
ltibia  1.60189724 0.8689913154 15.99393463
lfoot  0.5435982943 -27.68690491 34.41179276
ltoes  -8.664160728 -18.09554482 -116.1325455
